<svg width="210" height="11" viewBox="0 0 210 11" fill="none" xmlns="http://www.w3.org/2000/svg">
<path opacity="0.2" fill-rule="evenodd" clip-rule="evenodd" d="M11.4551 7H9V4H11.4551C12.2836 4 12.9551 4.67157 12.9551 5.5C12.9551 6.32843 12.2836 7 11.4551 7ZM19.7756 5.5C19.7756 4.67157 20.4472 4 21.2756 4H26.1859C27.0143 4 27.6859 4.67157 27.6859 5.5C27.6859 6.32843 27.0143 7 26.1859 7H21.2756C20.4472 7 19.7756 6.32843 19.7756 5.5ZM34.5064 5.5C34.5064 4.67157 35.178 4 36.0064 4H40.9167C41.7451 4 42.4167 4.67157 42.4167 5.5C42.4167 6.32843 41.7451 7 40.9167 7H36.0064C35.178 7 34.5064 6.32843 34.5064 5.5ZM49.2372 5.5C49.2372 4.67157 49.9088 4 50.7372 4H55.6474C56.4759 4 57.1474 4.67157 57.1474 5.5C57.1474 6.32843 56.4759 7 55.6474 7H50.7372C49.9088 7 49.2372 6.32843 49.2372 5.5ZM63.968 5.5C63.968 4.67157 64.6395 4 65.468 4H70.3782C71.2066 4 71.8782 4.67157 71.8782 5.5C71.8782 6.32843 71.2066 7 70.3782 7H65.468C64.6395 7 63.968 6.32843 63.968 5.5ZM78.6987 5.5C78.6987 4.67157 79.3703 4 80.1987 4H85.109C85.9374 4 86.609 4.67157 86.609 5.5C86.609 6.32843 85.9374 7 85.109 7H80.1987C79.3703 7 78.6987 6.32843 78.6987 5.5ZM93.4295 5.5C93.4295 4.67157 94.1011 4 94.9295 4H99.8397C100.668 4 101.34 4.67157 101.34 5.5C101.34 6.32843 100.668 7 99.8397 7H94.9295C94.1011 7 93.4295 6.32843 93.4295 5.5ZM108.16 5.5C108.16 4.67157 108.832 4 109.66 4H114.571C115.399 4 116.071 4.67157 116.071 5.5C116.071 6.32843 115.399 7 114.571 7H109.66C108.832 7 108.16 6.32843 108.16 5.5ZM122.891 5.5C122.891 4.67157 123.563 4 124.391 4H129.301C130.13 4 130.801 4.67157 130.801 5.5C130.801 6.32843 130.13 7 129.301 7H124.391C123.563 7 122.891 6.32843 122.891 5.5ZM137.622 5.5C137.622 4.67157 138.293 4 139.122 4H144.032C144.86 4 145.532 4.67157 145.532 5.5C145.532 6.32843 144.86 7 144.032 7H139.122C138.293 7 137.622 6.32843 137.622 5.5ZM152.353 5.5C152.353 4.67157 153.024 4 153.853 4H158.763C159.591 4 160.263 4.67157 160.263 5.5C160.263 6.32843 159.591 7 158.763 7H153.853C153.024 7 152.353 6.32843 152.353 5.5ZM167.083 5.5C167.083 4.67157 167.755 4 168.583 4H173.494C174.322 4 174.994 4.67157 174.994 5.5C174.994 6.32843 174.322 7 173.494 7H168.583C167.755 7 167.083 6.32843 167.083 5.5ZM181.814 5.5C181.814 4.67157 182.486 4 183.314 4H188.224C189.053 4 189.724 4.67157 189.724 5.5C189.724 6.32843 189.053 7 188.224 7H183.314C182.486 7 181.814 6.32843 181.814 5.5ZM196.545 5.5C196.545 4.67157 197.216 4 198.045 4H200.5V7H198.045C197.216 7 196.545 6.32843 196.545 5.5Z" fill="url(#paint0_linear_2_118)"/>
<circle cx="204.5" cy="5.5" r="5.5" fill="#4DDFFD"/>
<circle cx="5.5" cy="5.5" r="5.5" fill="#9672FF"/>
<defs>
<linearGradient id="paint0_linear_2_118" x1="14" y1="6.99893" x2="205.5" y2="7.49908" gradientUnits="userSpaceOnUse">
<stop stop-color="#9672FF"/>
<stop offset="1" stop-color="#4DDFFD"/>
</linearGradient>
</defs>
</svg>
