<svg width="139" height="23" viewBox="0 0 139 23" fill="none" xmlns="http://www.w3.org/2000/svg">
<path d="M7.86598 17.3449C8.70932 17.3449 9.52582 17.2376 10.3155 17.0229C11.1128 16.8083 11.8258 16.4862 12.4545 16.0569C13.0832 15.6199 13.5815 15.0717 13.9495 14.4124C14.3252 13.7454 14.513 12.9672 14.513 12.0779C14.513 11.2422 14.3558 10.5522 14.0415 10.0079C13.7348 9.46358 13.34 9.02658 12.857 8.69692C12.3816 8.35958 11.8833 8.09892 11.362 7.91492C10.8406 7.72325 10.3653 7.56992 9.93598 7.45492L7.06098 6.67291C6.70832 6.58092 6.36332 6.46592 6.02598 6.32792C5.68865 6.18992 5.40882 6.00975 5.18648 5.78742C4.96415 5.55742 4.85298 5.26225 4.85298 4.90192C4.85298 4.51092 4.98715 4.17358 5.25548 3.88991C5.53148 3.60625 5.88415 3.39158 6.31348 3.24591C6.75048 3.09258 7.21432 3.02358 7.70498 3.03891C8.45632 3.06191 9.14632 3.28425 9.77498 3.70592C10.4037 4.12758 10.81 4.74092 10.994 5.54592L14.375 4.97092C13.9763 3.41458 13.202 2.22241 12.052 1.39441C10.902 0.566415 9.46832 0.140916 7.75098 0.117915C6.61632 0.110248 5.58132 0.286581 4.64598 0.646915C3.71065 1.00725 2.96315 1.55541 2.40348 2.29141C1.84382 3.02741 1.56398 3.95125 1.56398 5.06291C1.56398 5.85258 1.69432 6.50808 1.95498 7.02941C2.22332 7.54308 2.55682 7.95708 2.95548 8.27142C3.35415 8.58575 3.76432 8.82725 4.18598 8.99592C4.61532 9.16458 4.99098 9.29492 5.31298 9.38692L9.61398 10.6519C10.258 10.8436 10.6873 11.0851 10.902 11.3764C11.1166 11.6601 11.224 11.9706 11.224 12.3079C11.224 12.7679 11.0668 13.1551 10.7525 13.4694C10.4458 13.7837 10.051 14.0214 9.56798 14.1824C9.08498 14.3434 8.58665 14.4239 8.07298 14.4239C7.15298 14.4239 6.33265 14.1671 5.61198 13.6534C4.89132 13.1397 4.41598 12.4076 4.18598 11.4569L0.919983 11.9399C1.08865 13.0593 1.48732 14.0252 2.11598 14.8379C2.75232 15.6429 3.56115 16.2639 4.54248 16.7009C5.53148 17.1302 6.63932 17.3449 7.86598 17.3449Z" fill="#31353B"/>
<path d="M17.0176 16.9999H20.1686V9.47892C20.1686 8.76592 20.3641 8.18708 20.7551 7.74241C21.1538 7.29008 21.679 7.06392 22.3306 7.06392C23.013 7.06392 23.5458 7.29392 23.9291 7.75392C24.3201 8.20625 24.5156 8.84258 24.5156 9.66292V16.9999H27.6436V9.47892C27.6436 8.76592 27.8391 8.18708 28.2301 7.74241C28.6288 7.29008 29.154 7.06392 29.8056 7.06392C30.488 7.06392 31.0208 7.29392 31.4041 7.75392C31.7951 8.20625 31.9906 8.84258 31.9906 9.66292V16.9999H35.1186V8.83492C35.1186 7.47792 34.7545 6.38158 34.0261 5.54592C33.3055 4.70258 32.236 4.28091 30.8176 4.28091C30.0203 4.28091 29.2881 4.45342 28.6211 4.79841C27.9541 5.14342 27.4213 5.61491 27.0226 6.21291C26.7006 5.63025 26.2406 5.16258 25.6426 4.80992C25.0446 4.45725 24.301 4.28091 23.4116 4.28091C22.6603 4.28091 21.9703 4.43042 21.3416 4.72942C20.713 5.02075 20.1916 5.42325 19.7776 5.93691V4.57992H17.0176V16.9999Z" fill="#31353B"/>
<path d="M41.559 17.3449C42.5173 17.3449 43.3223 17.1993 43.974 16.9079C44.6333 16.6089 45.239 16.1336 45.791 15.4819V16.9999H48.528V9.40992C48.528 8.84258 48.505 8.32892 48.459 7.86892C48.413 7.40892 48.2673 6.94891 48.022 6.48891C47.585 5.66091 46.941 5.07825 46.09 4.74091C45.239 4.40358 44.2653 4.23492 43.169 4.23492C41.674 4.23492 40.4933 4.55692 39.627 5.20092C38.7607 5.84492 38.1703 6.68058 37.856 7.70791L40.685 8.60492C40.8843 8.03758 41.2332 7.64275 41.7315 7.42041C42.2298 7.19808 42.709 7.08692 43.169 7.08692C43.905 7.08692 44.4532 7.22491 44.8135 7.50092C45.1738 7.76925 45.3847 8.19475 45.446 8.77742C44.2807 8.94608 43.2533 9.11092 42.364 9.27192C41.4747 9.42525 40.731 9.60925 40.133 9.82392C39.1363 10.1919 38.4348 10.6941 38.0285 11.3304C37.6222 11.9591 37.419 12.7066 37.419 13.5729C37.419 14.2629 37.5762 14.8954 37.8905 15.4704C38.2125 16.0377 38.6802 16.4939 39.2935 16.8389C39.9145 17.1763 40.6697 17.3449 41.559 17.3449ZM42.226 14.8839C41.6893 14.8839 41.2638 14.7651 40.9495 14.5274C40.6352 14.2821 40.478 13.9486 40.478 13.5269C40.478 13.2126 40.5777 12.9442 40.777 12.7219C40.9763 12.4919 41.306 12.2849 41.766 12.1009C42.1187 11.9706 42.5518 11.8517 43.0655 11.7444C43.5868 11.6294 44.3727 11.4837 45.423 11.3074C45.4153 11.6064 45.3923 11.9361 45.354 12.2964C45.3157 12.6491 45.2313 12.9596 45.101 13.2279C45.0167 13.4043 44.8557 13.6227 44.618 13.8834C44.388 14.1441 44.0737 14.3779 43.675 14.5849C43.284 14.7842 42.801 14.8839 42.226 14.8839Z" fill="#31353B"/>
<path d="M51.5182 16.9999H54.6692V10.6519C54.6692 9.21058 55.2365 8.22925 56.3712 7.70791C56.7392 7.53158 57.1494 7.42808 57.6017 7.39741C58.0617 7.35908 58.4642 7.39358 58.8092 7.50092V4.57992C58.2495 4.51092 57.6899 4.52625 57.1302 4.62591C56.5705 4.71791 56.0645 4.90192 55.6122 5.17792C55.3208 5.34658 55.064 5.54975 54.8417 5.78742C54.627 6.02508 54.4392 6.28958 54.2782 6.58091V4.57992H51.5182V16.9999Z" fill="#31353B"/>
<path d="M68.4487 16.9999V14.4009C67.7127 14.5006 67.0419 14.5312 66.4362 14.4929C65.8305 14.4546 65.3897 14.2169 65.1137 13.7799C64.968 13.5499 64.8875 13.2433 64.8722 12.8599C64.8645 12.4689 64.8607 12.0319 64.8607 11.5489V6.99491H68.4487V4.57992H64.8607V1.12991H61.7327V4.57992H59.6167V6.99491H61.7327V11.7329C61.7327 12.4766 61.7404 13.1436 61.7557 13.7339C61.771 14.3166 61.932 14.8916 62.2387 15.4589C62.576 16.0646 63.0667 16.5054 63.7107 16.7814C64.3624 17.0497 65.0984 17.1916 65.9187 17.2069C66.7467 17.2299 67.59 17.1609 68.4487 16.9999Z" fill="#31353B"/>
<path d="M77.4724 17.3449C78.3158 17.3449 79.1323 17.2376 79.9219 17.0229C80.7193 16.8083 81.4323 16.4862 82.0609 16.0569C82.6896 15.6199 83.1879 15.0717 83.5559 14.4124C83.9316 13.7454 84.1194 12.9672 84.1194 12.0779C84.1194 11.2422 83.9623 10.5522 83.6479 10.0079C83.3413 9.46358 82.9464 9.02658 82.4634 8.69692C81.9881 8.35958 81.4898 8.09892 80.9684 7.91492C80.4471 7.72325 79.9718 7.56992 79.5424 7.45492L76.6674 6.67291C76.3148 6.58092 75.9698 6.46592 75.6324 6.32792C75.2951 6.18992 75.0153 6.00975 74.7929 5.78742C74.5706 5.55742 74.4594 5.26225 74.4594 4.90192C74.4594 4.51092 74.5936 4.17358 74.8619 3.88991C75.1379 3.60625 75.4906 3.39158 75.9199 3.24591C76.3569 3.09258 76.8208 3.02358 77.3114 3.03891C78.0628 3.06191 78.7528 3.28425 79.3814 3.70592C80.0101 4.12758 80.4164 4.74092 80.6004 5.54592L83.9814 4.97092C83.5828 3.41458 82.8084 2.22241 81.6584 1.39441C80.5084 0.566415 79.0748 0.140916 77.3574 0.117915C76.2228 0.110248 75.1878 0.286581 74.2524 0.646915C73.3171 1.00725 72.5696 1.55541 72.0099 2.29141C71.4503 3.02741 71.1704 3.95125 71.1704 5.06291C71.1704 5.85258 71.3008 6.50808 71.5614 7.02941C71.8298 7.54308 72.1633 7.95708 72.5619 8.27142C72.9606 8.58575 73.3708 8.82725 73.7924 8.99592C74.2218 9.16458 74.5974 9.29492 74.9194 9.38692L79.2204 10.6519C79.8644 10.8436 80.2938 11.0851 80.5084 11.3764C80.7231 11.6601 80.8304 11.9706 80.8304 12.3079C80.8304 12.7679 80.6733 13.1551 80.3589 13.4694C80.0523 13.7837 79.6574 14.0214 79.1744 14.1824C78.6914 14.3434 78.1931 14.4239 77.6794 14.4239C76.7594 14.4239 75.9391 14.1671 75.2184 13.6534C74.4978 13.1397 74.0224 12.4076 73.7924 11.4569L70.5264 11.9399C70.6951 13.0593 71.0938 14.0252 71.7224 14.8379C72.3588 15.6429 73.1676 16.2639 74.1489 16.7009C75.1379 17.1302 76.2458 17.3449 77.4724 17.3449Z" fill="#31353B"/>
<path d="M86.6241 22.5199H89.7751V16.5514C90.1814 16.8044 90.6299 16.9999 91.1206 17.1379C91.6189 17.2759 92.1594 17.3449 92.7421 17.3449C93.8844 17.3449 94.8849 17.0574 95.7436 16.4824C96.6023 15.9074 97.2693 15.1254 97.7446 14.1364C98.2276 13.1474 98.4691 12.0319 98.4691 10.7899C98.4691 9.52491 98.2238 8.40175 97.7331 7.42041C97.2501 6.43141 96.5678 5.65325 95.6861 5.08592C94.8044 4.51858 93.7694 4.23492 92.5811 4.23492C91.9371 4.23492 91.3468 4.32691 90.8101 4.51091C90.2811 4.68725 89.8058 4.94025 89.3841 5.26991V4.57992H86.6241V22.5199ZM92.2361 14.5619C91.1934 14.5619 90.4574 14.2169 90.0281 13.5269C89.5988 12.8292 89.3841 11.9169 89.3841 10.7899C89.3841 9.66291 89.5949 8.75442 90.0166 8.06442C90.4459 7.36675 91.1474 7.01792 92.1211 7.01792C92.8188 7.01792 93.3899 7.19042 93.8346 7.53542C94.2869 7.87275 94.6204 8.32892 94.8351 8.90392C95.0498 9.47125 95.1571 10.0999 95.1571 10.7899C95.1571 11.4876 95.0536 12.1239 94.8466 12.6989C94.6396 13.2662 94.3214 13.7186 93.8921 14.0559C93.4628 14.3932 92.9108 14.5619 92.2361 14.5619Z" fill="#31353B"/>
<path d="M104.45 17.3449C105.408 17.3449 106.213 17.1993 106.865 16.9079C107.524 16.6089 108.13 16.1336 108.682 15.4819V16.9999H111.419V9.40992C111.419 8.84258 111.396 8.32892 111.35 7.86892C111.304 7.40892 111.158 6.94891 110.913 6.48891C110.476 5.66091 109.832 5.07825 108.981 4.74091C108.13 4.40358 107.156 4.23492 106.06 4.23492C104.565 4.23492 103.384 4.55692 102.518 5.20092C101.651 5.84492 101.061 6.68058 100.747 7.70791L103.576 8.60492C103.775 8.03758 104.124 7.64275 104.622 7.42041C105.12 7.19808 105.6 7.08692 106.06 7.08692C106.796 7.08692 107.344 7.22491 107.704 7.50092C108.064 7.76925 108.275 8.19475 108.337 8.77742C107.171 8.94608 106.144 9.11092 105.255 9.27192C104.365 9.42525 103.622 9.60925 103.024 9.82392C102.027 10.1919 101.325 10.6941 100.919 11.3304C100.513 11.9591 100.31 12.7066 100.31 13.5729C100.31 14.2629 100.467 14.8954 100.781 15.4704C101.103 16.0377 101.571 16.4939 102.184 16.8389C102.805 17.1763 103.56 17.3449 104.45 17.3449ZM105.117 14.8839C104.58 14.8839 104.154 14.7651 103.84 14.5274C103.526 14.2821 103.369 13.9486 103.369 13.5269C103.369 13.2126 103.468 12.9442 103.668 12.7219C103.867 12.4919 104.197 12.2849 104.657 12.1009C105.009 11.9706 105.442 11.8517 105.956 11.7444C106.477 11.6294 107.263 11.4837 108.314 11.3074C108.306 11.6064 108.283 11.9361 108.245 12.2964C108.206 12.6491 108.122 12.9596 107.992 13.2279C107.907 13.4043 107.746 13.6227 107.509 13.8834C107.279 14.1441 106.964 14.3779 106.566 14.5849C106.175 14.7842 105.692 14.8839 105.117 14.8839Z" fill="#31353B"/>
<path d="M119.883 17.3449C121.324 17.3449 122.535 16.9884 123.517 16.2754C124.498 15.5624 125.165 14.5466 125.518 13.2279L122.321 12.5609C122.137 13.1589 121.861 13.6189 121.493 13.9409C121.125 14.2629 120.588 14.4239 119.883 14.4239C118.94 14.4239 118.227 14.0904 117.744 13.4234C117.268 12.7487 117.031 11.8709 117.031 10.7899C117.031 9.75492 117.257 8.89242 117.709 8.20242C118.169 7.50475 118.894 7.15591 119.883 7.15591C120.458 7.15591 120.971 7.33608 121.424 7.69642C121.884 8.05675 122.206 8.55892 122.39 9.20292L125.518 8.37492C125.242 7.09458 124.605 6.08642 123.609 5.35042C122.62 4.60675 121.393 4.23492 119.929 4.23492C118.664 4.23492 117.567 4.51858 116.64 5.08592C115.712 5.65325 114.991 6.43141 114.478 7.42041C113.972 8.40941 113.719 9.53258 113.719 10.7899C113.719 12.0319 113.964 13.1474 114.455 14.1364C114.945 15.1254 115.651 15.9074 116.571 16.4824C117.491 17.0574 118.595 17.3449 119.883 17.3449Z" fill="#31353B"/>
<path d="M133.254 17.3449C134.45 17.3449 135.55 17.0306 136.555 16.4019C137.567 15.7732 138.306 14.8916 138.774 13.7569L135.646 12.8599C135.171 13.9026 134.312 14.4239 133.07 14.4239C132.219 14.4239 131.548 14.1862 131.058 13.7109C130.575 13.2356 130.276 12.5532 130.161 11.6639H138.878C139.008 10.1612 138.855 8.85408 138.418 7.74241C137.981 6.63075 137.306 5.76825 136.394 5.15491C135.481 4.54158 134.373 4.23492 133.07 4.23492C131.843 4.23492 130.759 4.51475 129.816 5.07441C128.873 5.62641 128.133 6.40458 127.596 7.40892C127.059 8.41325 126.791 9.59392 126.791 10.9509C126.791 12.1929 127.063 13.2969 127.608 14.2629C128.16 15.2212 128.919 15.9764 129.885 16.5284C130.858 17.0727 131.981 17.3449 133.254 17.3449ZM133.208 6.94892C133.959 6.94892 134.534 7.13675 134.933 7.51242C135.339 7.88808 135.6 8.49758 135.715 9.34092H130.241C130.571 7.74625 131.56 6.94892 133.208 6.94892Z" fill="#31353B"/>
</svg>
